<?xml version="1.0" encoding="UTF-8"?>
<svg class="css-1j8o68f" viewBox="0 0 200 184.07" xmlns="http://www.w3.org/2000/svg">
<defs>
<linearGradient id="a">
<stop stop-color="#b88746" offset="0"/>
<stop stop-color="#fdf5a6" offset="1"/>
</linearGradient>
</defs>
<g transform="matrix(.47917 0 0 .47917 28.149 -9.5833)" fill="url(#a)">
<path d="m253.2 116.8c-0.4-0.4-0.8-0.8-1.2-1.1 0.2-1.3 0.4-2.6 0.4-4 0-9.3-5.7-17.5-14.1-20.9-1.1-7.3-5.6-13.5-12.2-16.8-2.2-10.3-11.3-18-22.2-18h-0.8c-1.1-8-6.6-14.9-14.1-17.8-1.9-10.5-11-18.2-22-18.2-7.3 0-14 3.5-18.2 9.2-7.6-0.1-14.6 3.6-18.8 9.7-1.5-0.3-3-0.5-4.6-0.5-7 0-13.5 3.2-17.7 8.6-1.2-0.2-2.3-0.3-3.5-0.3-11.5 0-21 8.6-22.4 19.7-9.1 1.6-16.3 8.7-18.2 17.7-10.3 2.1-18 11.2-18 22.1 0 3.7 0.9 7.3 2.6 10.5l-0.1 0.1c-0.9 1.2-1.3 2.7-1 4.1l31 155c0 0.1 0 0.1 0.1 0.2 0.1 0.2 0.1 0.5 0.2 0.7 0 0.1 0.1 0.2 0.1 0.3 0.1 0.2 0.2 0.4 0.3 0.5s0.1 0.2 0.2 0.3c0.1 0.2 0.2 0.3 0.4 0.4l0.3 0.3c0.1 0.1 0.3 0.2 0.4 0.3s0.2 0.1 0.3 0.2c0.2 0.1 0.3 0.2 0.5 0.3 0.1 0.1 0.2 0.1 0.3 0.2 0.2 0.1 0.4 0.1 0.6 0.2 0.1 0 0.2 0.1 0.3 0.1 0.3 0.1 0.6 0.1 0.9 0.1h134.2c2.4 0 4.4-1.7 4.9-4l32.1-155c0.3-1.5-0.1-3-1-4.2zm-33.2 26.9 18.7-18.7h2l-1 4.9-19.7 19.6v-5.8zm0 20 16-16-1.5 7.4-14.5 14.4v-5.8zm0 20 10.8-10.8-1.5 7.4-9.3 9.3v-5.9zm0 20 5.7-5.7-1.5 7.4-4.2 4.2v-5.9zm0 20 0.5-0.5-0.5 2.6v-2.1zm0-94.2v-4.5h4.5l-4.5 4.5zm-151.7-35.8c2.8 0 5-2.2 5-5 0-6.9 5.6-12.5 12.5-12.5h0.6c1.5 0.1 2.9-0.4 4-1.5 1-1.1 1.5-2.5 1.4-4-0.1-0.5-0.1-1-0.1-1.4 0-6.9 5.6-12.5 12.5-12.5 1.4 0 2.8 0.2 4.1 0.7 2.3 0.8 4.9-0.2 6.1-2.4 2.2-4.1 6.4-6.6 11.1-6.6 1.7 0 3.4 0.3 4.9 1 1.2 0.5 2.6 0.6 3.8 0.1s2.2-1.5 2.8-2.7c2-4.6 6.5-7.6 11.5-7.6 0.6 0 1.3 0.1 2 0.2 2.1 0.4 4.3-0.7 5.3-2.6 2.2-4.2 6.4-6.8 11.1-6.8 6.8 0 12.3 5.3 12.5 12.2 0.1 2.3 1.7 4.3 4 4.7 5.7 1.2 9.9 6.4 9.9 12.3 0 0.6-0.1 1.3-0.2 2-0.3 1.7 0.3 3.5 1.7 4.7 1.3 1.1 3.2 1.5 4.9 0.9 1.4-0.5 2.8-0.7 4.1-0.7 6.6 0 12.1 5.2 12.5 11.8 0.1 2.1 1.5 3.8 3.4 4.5 5.1 1.7 8.6 6.5 8.6 11.8v0.4c0 2.4 1.7 4.4 4 4.9 5.7 1.2 9.9 6.4 9.9 12.3 0 1.1-0.2 2.2-0.4 3.2h-182.9c-0.2-0.5-0.4-0.9-0.7-1.3-1.6-2.2-2.5-4.7-2.5-7.5 0-7 5.6-12.6 12.6-12.6zm108.7 118.8-23 23v-5.9l23-23v5.9zm0-20-23 23v-5.9l23-23v5.9zm0-20-23 23v-5.9l23-23v5.9zm0-20-23 23v-5.9l23-23v5.9zm0-20-23 23v-5.9l23-23v5.9zm-23 3v-5.9l4.7-4.7h5.9l-10.6 10.6zm0 114.2 23-23v5.9l-23 23v-5.9zm23 20.3h-3.3l3.3-3.3v3.3zm-83.3 0 17.3-17.3v5.8l-11.5 11.5h-5.8zm17.3-31.4-23 23v-5.9l23-23v5.9zm0-20.1-23 23v-5.9l23-23v5.9zm0-20-23 23v-5.9l23-23v5.9zm0-20-23 23v-5.9l23-23v5.9zm0-20-23 23v-5.9l23-23v5.9zm0-20-23 23v-5.9l23-23v5.9zm-23 3v-5.9l10.7-10.6h5.9l-16.6 16.5zm-10 72.2-1.9-9.2v-0.1l-16.5-79.4h18.4v88.7zm43 27.3v-0.8-115.2h23v145h-23v-29zm33 28.7 23-23v5.9l-17.5 17.4h-5.5v-0.3zm33-144.7h23v145h-23v-145zm-86.7-35.8v-2c0.1-0.7 0.2-1.4 0.4-2.2 0.3-1.5 1-3 1.9-4.4s2.1-2.8 3.6-3.9c0.7-0.5 1.5-1.1 2.3-1.5 0.4-0.2 0.8-0.4 1.3-0.6l0.6-0.3 0.3-0.1 0.2-0.1h0.1l0.3-0.1 1-0.3c0.2 0 0.3-0.1 0.6-0.1l0.8-0.1c1.1-0.2 2-0.2 2.9-0.2 1.8 0.1 3.6 0.4 5.2 1.1 1.6 0.6 3 1.5 4.2 2.5 0.6 0.5 1.1 1 1.6 1.5s0.9 1.1 1.2 1.6c0.3 0.6 0.6 1.1 0.9 1.6l0.6 1.5c0.1 0.5 0.2 0.9 0.3 1.4 0.1 0.4 0.1 0.8 0.1 1.2 0.1 0.7-0.1 1.3-0.1 1.6 0 0.4-0.1 0.6-0.1 0.6s-0.2-0.1-0.4-0.4c-0.3-0.2-0.7-0.6-1.2-1-0.2-0.2-0.5-0.4-0.8-0.6s-0.6-0.4-1-0.6c-0.7-0.4-1.4-0.8-2.2-1.2-0.8-0.3-1.7-0.6-2.6-0.8s-1.8-0.3-2.7-0.4-1.8 0-2.7 0.1c-0.2 0-0.4 0.1-0.7 0.1-0.2 0-0.3 0.1-0.5 0.1h-0.2-0.2l-0.2 0.1-0.8 0.2h-0.1l-0.2 0.1-0.3 0.1-1.8 0.9c-0.8 0.5-1.5 0.9-2.2 1.5s-1.4 1.2-1.9 1.9c-0.6 0.7-1.1 1.4-1.6 2.2-0.4 0.8-0.8 1.5-1.1 2.3-0.1 0.4-0.3 0.7-0.4 1.1l-0.3 0.9c-0.2 0.6-0.3 1.2-0.4 1.5-0.1 0.4-0.1 0.6-0.1 0.6s-0.2-0.1-0.4-0.4l-0.5-0.5c-0.2-0.2-0.4-0.4-0.6-0.7s-0.4-0.6-0.6-1-0.4-0.8-0.6-1.3-0.3-1-0.4-1.6c-0.4-0.6-0.4-1.2-0.5-1.9zm43.5-28.9c0-0.3-0.1-0.6 0-0.9 0-0.4 0.1-0.8 0.1-1.2 0.1-0.4 0.2-0.9 0.3-1.4s0.3-1 0.6-1.5c0.2-0.5 0.5-1 0.9-1.6 0.3-0.5 0.8-1.1 1.2-1.6 0.5-0.5 1-1.1 1.6-1.5 1.2-1 2.6-1.8 4.2-2.5 1.6-0.6 3.4-1 5.2-1.1s3.7 0.2 5.5 0.8l0.4 0.1h0.1l0.2 0.1 0.5 0.2c0.2 0.1 0.3 0.1 0.5 0.2l0.7 0.4c1 0.5 1.7 1 2.5 1.5 1.4 1.1 2.7 2.5 3.6 3.9 0.9 1.5 1.6 3 1.9 4.4 0.2 0.7 0.3 1.5 0.4 2.2 0 0.7 0.1 1.4 0 2s-0.1 1.2-0.3 1.8-0.3 1.1-0.5 1.6-0.4 0.9-0.6 1.3-0.4 0.7-0.6 1c-0.4 0.6-0.8 1-1 1.3l-0.4 0.4s-0.1-0.2-0.1-0.6c-0.1-0.4-0.2-0.9-0.4-1.5-0.1-0.3-0.2-0.6-0.3-1-0.1-0.3-0.3-0.7-0.4-1.1-0.3-0.7-0.7-1.5-1.1-2.2-0.5-0.7-1-1.5-1.6-2.2s-1.3-1.3-1.9-1.9c-0.7-0.6-1.5-1.1-2.2-1.5l-0.6-0.3c-0.2-0.1-0.3-0.1-0.5-0.2l-0.2-0.1s-0.1 0-0.2-0.1l-0.2-0.1-0.5-0.2-0.2-0.1h-0.1c-0.8-0.2-1.7-0.5-2.5-0.6-0.9-0.1-1.8-0.2-2.7-0.1s-1.8 0.2-2.7 0.4-1.7 0.5-2.6 0.8c-0.8 0.4-1.6 0.7-2.2 1.2-0.3 0.2-0.6 0.4-1 0.6-0.3 0.2-0.6 0.4-0.8 0.6-0.5 0.3-0.9 0.8-1.2 1s-0.4 0.4-0.4 0.4 0-0.2-0.1-0.6c-0.2 0-0.3-0.2-0.3-0.5zm29.9 26.6c0.2-0.5 0.5-1 0.9-1.6 0.3-0.5 0.8-1.1 1.2-1.6 0.5-0.5 1-1.1 1.6-1.5 1.2-1 2.6-1.8 4.2-2.5 1.6-0.6 3.4-1 5.2-1.1s3.7 0.2 5.5 0.8l0.4 0.1h0.1l0.2 0.1 0.5 0.2c0.2 0.1 0.3 0.1 0.5 0.2l0.7 0.4c1 0.5 1.7 1 2.5 1.5 1.4 1.1 2.7 2.5 3.6 3.9 0.9 1.5 1.6 3 1.9 4.4 0.2 0.7 0.3 1.5 0.4 2.2 0 0.7 0.1 1.4 0 2s-0.1 1.2-0.3 1.8-0.3 1.1-0.5 1.6-0.4 0.9-0.6 1.3-0.4 0.7-0.6 1c-0.4 0.6-0.8 1-1 1.3l-0.4 0.4s-0.1-0.2-0.1-0.6c-0.1-0.4-0.2-0.9-0.4-1.5-0.1-0.3-0.2-0.6-0.3-1-0.1-0.3-0.3-0.7-0.4-1.1-0.3-0.7-0.7-1.5-1.1-2.2-0.5-0.7-1-1.5-1.6-2.2s-1.3-1.3-1.9-1.9c-0.7-0.6-1.5-1.1-2.2-1.5l-0.6-0.3c-0.2-0.1-0.3-0.1-0.5-0.2l-0.2-0.1s-0.1 0-0.2-0.1l-0.2-0.1-0.5-0.2-0.2-0.1h-0.1c-0.8-0.2-1.7-0.5-2.5-0.6-0.9-0.1-1.8-0.2-2.7-0.1s-1.8 0.2-2.7 0.4-1.7 0.5-2.6 0.8c-0.8 0.4-1.6 0.7-2.2 1.2-0.3 0.2-0.6 0.4-1 0.6-0.3 0.2-0.6 0.4-0.8 0.6-0.5 0.3-0.9 0.8-1.2 1s-0.4 0.4-0.4 0.4 0-0.2-0.1-0.6c0-0.2 0-0.4-0.1-0.7 0-0.3-0.1-0.6 0-0.9 0-0.4 0.1-0.8 0.1-1.2 0.1-0.4 0.2-0.9 0.3-1.4 0-0.3 0.2-0.8 0.4-1.3z" xmlns="http://www.w3.org/2000/svg"/>
</g>
<g transform="matrix(1.194 0 0 1.194 1.2873 135.59)" fill="url(#a)">
<path d="m24.52 18.52c-0.18668-1.1467-0.49332-2.2532-0.92-3.3199-0.37332-0.90668-0.88-1.8334-1.52-2.78s-1.48-1.7267-2.52-2.34h5.32 6.68c-1.0133 0.85332-1.9533 1.7666-2.82 2.74s-1.6067 1.8866-2.22 2.74c-0.72 0.98668-1.3867 1.9734-2 2.96zm-5 21.48h-7.76v-12l-12.84-17.88h7.76l12.84 17.88v12zm21.4-21c1.36 0 2.6467 0.27324 3.86 0.81992s2.2733 1.2934 3.18 2.24 1.62 2.06 2.14 3.34 0.78 2.6533 0.78 4.12c0 1.44-0.26 2.7933-0.78 4.06s-1.2333 2.3734-2.14 3.32-1.9667 1.6934-3.18 2.24-2.5 0.82-3.86 0.82h-0.64c0.48-0.42668 0.91332-0.98668 1.3-1.68s0.72-1.4933 1-2.4 0.5-1.9 0.66-2.98 0.24-2.2067 0.24-3.38-0.08-2.3066-0.24-3.4-0.38-2.0933-0.66-3-0.61332-1.7134-1-2.42-0.82-1.2734-1.3-1.7h0.64zm-5.72 20.96c-1.36 0-2.6467-0.27324-3.86-0.81992s-2.2733-1.2934-3.18-2.24-1.62-2.0534-2.14-3.32-0.78-2.62-0.78-4.06c0-1.4667 0.26-2.84 0.78-4.12s1.2333-2.3933 2.14-3.34 1.9667-1.6934 3.18-2.24 2.5-0.82 3.86-0.82h0.64c-0.48 0.42668-0.91332 0.99336-1.3 1.7s-0.72 1.5134-1 2.42-0.5 1.9067-0.66 3-0.24 2.2266-0.24 3.4 0.08 2.3 0.24 3.38 0.38 2.0733 0.66 2.98 0.61332 1.7067 1 2.4 0.82 1.2533 1.3 1.68h-0.64zm32.52-19.84c1.4667 0 2.8467 0.25984 4.14 0.77984s2.42 1.22 3.38 2.1 1.72 1.92 2.28 3.12 0.84 2.48 0.84 3.84-0.28 2.6333-0.84 3.82-1.32 2.2267-2.28 3.12-2.0867 1.6-3.38 2.12-2.6733 0.78-4.14 0.78h-0.64c0.50668-0.4 0.96668-0.92668 1.38-1.58s0.76664-1.4066 1.06-2.26 0.52664-1.7866 0.69996-2.8 0.26-2.08 0.26-3.2-0.08668-2.1867-0.26-3.2-0.40664-1.9466-0.69996-2.8-0.64664-1.6066-1.06-2.26-0.87332-1.18-1.38-1.58h0.64zm-14.04-6.2c1.2267-0.53332 2.3732-1.0867 3.4399-1.66s1.9867-1.1 2.76-1.58c0.90668-0.53332 1.7334-1.0666 2.48-1.6v30.92h-7v-21.16c0-1.0133-0.08668-1.84-0.26-2.48s-0.36664-1.1467-0.57996-1.52c-0.26668-0.42668-0.54668-0.73336-0.84-0.92004zm41.36 6.2c1.4667 0 2.8467 0.25984 4.14 0.77984s2.42 1.22 3.38 2.1 1.72 1.92 2.28 3.12 0.84 2.48 0.84 3.84-0.28 2.6333-0.84 3.82-1.32 2.2267-2.28 3.12-2.0867 1.6-3.38 2.12-2.6733 0.78-4.14 0.78h-0.64c0.50668-0.4 0.96668-0.92668 1.38-1.58s0.76664-1.4066 1.06-2.26 0.52664-1.7866 0.69996-2.8 0.26-2.08 0.26-3.2-0.08668-2.1867-0.26-3.2-0.40664-1.9466-0.69996-2.8-0.64664-1.6066-1.06-2.26-0.87332-1.18-1.38-1.58h0.64zm-14.04-6.2c1.2267-0.53332 2.3732-1.0867 3.4399-1.66s1.9867-1.1 2.76-1.58c0.90668-0.53332 1.7334-1.0666 2.48-1.6v30.92h-7v-21.16c0-1.0133-0.08668-1.84-0.26-2.48s-0.36664-1.1467-0.57996-1.52c-0.26668-0.42668-0.54668-0.73336-0.84-0.92004zm36.2-2.24c0 0.53332-0.1 1.0266-0.3 1.48s-0.47332 0.85332-0.82 1.2-0.75336 0.62-1.22 0.82-0.95336 0.3-1.46 0.3c-0.53332 0-1.0333-0.1-1.5-0.3s-0.86668-0.47332-1.2-0.82-0.6-0.74668-0.8-1.2-0.3-0.94664-0.3-1.48c0-0.50668 0.1-0.99336 0.3-1.46s0.46668-0.87336 0.8-1.22 0.73332-0.62 1.2-0.82 0.96668-0.3 1.5-0.3c0.50668 0 0.99336 0.1 1.46 0.3s0.87336 0.47332 1.22 0.82 0.62 0.75336 0.82 1.22 0.3 0.95336 0.3 1.46zm-9.24 11.24c0.29332 0.18668 0.57344 0.4934 0.84012 0.92008 0.21332 0.37332 0.40664 0.88 0.57996 1.52s0.26 1.4667 0.26 2.48v12.16h7v-21.92c-0.74668 0.53332-1.5734 1.0666-2.48 1.6-0.77332 0.48-1.6933 1.0067-2.76 1.58s-2.2134 1.1266-3.44 1.66zm31.2 14.64c0.93332 0 1.7733-0.09332 2.52-0.28-1.0933 1.0133-2.3666 1.82-3.82 2.42s-3.02 0.9-4.7 0.9c-1.6533 0-3.2066-0.28668-4.66-0.86s-2.72-1.36-3.8-2.36-1.9333-2.1733-2.56-3.52-0.94-2.78-0.94-4.3c0-1.4667 0.26668-2.84 0.8-4.12s1.26-2.4067 2.18-3.38 2.0067-1.76 3.26-2.36 2.5866-0.94 4-1.02c-0.98668 1.12-1.7067 2.3733-2.16 3.76s-0.68 2.9467-0.68 4.68c0 1.5467 0.27332 2.96 0.82 4.24s1.3 2.38 2.26 3.3 2.08 1.6333 3.36 2.14 2.6533 0.76 4.12 0.76zm-2.04-7.52c0.08-0.42668 0.14672-0.85332 0.20004-1.28s0.08-0.86668 0.08-1.32c0-1.7867-0.22668-3.4067-0.68-4.86s-1.1733-2.7533-2.16-3.9c1.4133 0.08 2.7466 0.43332 4 1.06s2.34 1.4467 3.26 2.46 1.6467 2.18 2.18 3.5 0.8 2.74 0.8 4.26v0.08h-7.68zm21.84-3.92c1.2267 0.50668 2.32 1.1533 3.28 1.94s1.76 1.68 2.4 2.68 1.1133 2.0867 1.42 3.26 0.42 2.3733 0.34 3.6l-12.04-4.84v-0.04c-1.2-0.48-2.28-1.12-3.24-1.92s-1.7667-1.7-2.42-2.7-1.1333-2.08-1.44-3.24-0.40668-2.3667-0.3-3.62zm6.84 0.96c-0.8-1.44-1.7733-2.6667-2.92-3.68s-2.2667-1.8533-3.36-2.52c-1.28-0.77332-2.5867-1.4266-3.92-1.96h10.2v8.16zm-18.88 4.32c0.77332 1.44 1.7267 2.6933 2.86 3.76s2.2333 1.96 3.3 2.68c1.2533 0.85332 2.5333 1.56 3.84 2.12h-10v-8.56z"></path>
</g>
</svg>
