<?xml version="1.0" encoding="UTF-8"?>
<svg class="css-1j8o68f" viewBox="38 0 124 124" xmlns="http://www.w3.org/2000/svg">
<defs>
<linearGradient id="a">
<stop stop-color="#b88746" offset="0"/>
<stop stop-color="#fdf5a6" offset="1"/>
</linearGradient>
</defs>
<g transform="matrix(.47917 0 0 .47917 28.149 -9.5833)" fill="url(#a)">
<path d="m253.2 116.8c-0.4-0.4-0.8-0.8-1.2-1.1 0.2-1.3 0.4-2.6 0.4-4 0-9.3-5.7-17.5-14.1-20.9-1.1-7.3-5.6-13.5-12.2-16.8-2.2-10.3-11.3-18-22.2-18h-0.8c-1.1-8-6.6-14.9-14.1-17.8-1.9-10.5-11-18.2-22-18.2-7.3 0-14 3.5-18.2 9.2-7.6-0.1-14.6 3.6-18.8 9.7-1.5-0.3-3-0.5-4.6-0.5-7 0-13.5 3.2-17.7 8.6-1.2-0.2-2.3-0.3-3.5-0.3-11.5 0-21 8.6-22.4 19.7-9.1 1.6-16.3 8.7-18.2 17.7-10.3 2.1-18 11.2-18 22.1 0 3.7 0.9 7.3 2.6 10.5l-0.1 0.1c-0.9 1.2-1.3 2.7-1 4.1l31 155c0 0.1 0 0.1 0.1 0.2 0.1 0.2 0.1 0.5 0.2 0.7 0 0.1 0.1 0.2 0.1 0.3 0.1 0.2 0.2 0.4 0.3 0.5s0.1 0.2 0.2 0.3c0.1 0.2 0.2 0.3 0.4 0.4l0.3 0.3c0.1 0.1 0.3 0.2 0.4 0.3s0.2 0.1 0.3 0.2c0.2 0.1 0.3 0.2 0.5 0.3 0.1 0.1 0.2 0.1 0.3 0.2 0.2 0.1 0.4 0.1 0.6 0.2 0.1 0 0.2 0.1 0.3 0.1 0.3 0.1 0.6 0.1 0.9 0.1h134.2c2.4 0 4.4-1.7 4.9-4l32.1-155c0.3-1.5-0.1-3-1-4.2zm-33.2 26.9 18.7-18.7h2l-1 4.9-19.7 19.6v-5.8zm0 20 16-16-1.5 7.4-14.5 14.4v-5.8zm0 20 10.8-10.8-1.5 7.4-9.3 9.3v-5.9zm0 20 5.7-5.7-1.5 7.4-4.2 4.2v-5.9zm0 20 0.5-0.5-0.5 2.6v-2.1zm0-94.2v-4.5h4.5l-4.5 4.5zm-151.7-35.8c2.8 0 5-2.2 5-5 0-6.9 5.6-12.5 12.5-12.5h0.6c1.5 0.1 2.9-0.4 4-1.5 1-1.1 1.5-2.5 1.4-4-0.1-0.5-0.1-1-0.1-1.4 0-6.9 5.6-12.5 12.5-12.5 1.4 0 2.8 0.2 4.1 0.7 2.3 0.8 4.9-0.2 6.1-2.4 2.2-4.1 6.4-6.6 11.1-6.6 1.7 0 3.4 0.3 4.9 1 1.2 0.5 2.6 0.6 3.8 0.1s2.2-1.5 2.8-2.7c2-4.6 6.5-7.6 11.5-7.6 0.6 0 1.3 0.1 2 0.2 2.1 0.4 4.3-0.7 5.3-2.6 2.2-4.2 6.4-6.8 11.1-6.8 6.8 0 12.3 5.3 12.5 12.2 0.1 2.3 1.7 4.3 4 4.7 5.7 1.2 9.9 6.4 9.9 12.3 0 0.6-0.1 1.3-0.2 2-0.3 1.7 0.3 3.5 1.7 4.7 1.3 1.1 3.2 1.5 4.9 0.9 1.4-0.5 2.8-0.7 4.1-0.7 6.6 0 12.1 5.2 12.5 11.8 0.1 2.1 1.5 3.8 3.4 4.5 5.1 1.7 8.6 6.5 8.6 11.8v0.4c0 2.4 1.7 4.4 4 4.9 5.7 1.2 9.9 6.4 9.9 12.3 0 1.1-0.2 2.2-0.4 3.2h-182.9c-0.2-0.5-0.4-0.9-0.7-1.3-1.6-2.2-2.5-4.7-2.5-7.5 0-7 5.6-12.6 12.6-12.6zm108.7 118.8-23 23v-5.9l23-23v5.9zm0-20-23 23v-5.9l23-23v5.9zm0-20-23 23v-5.9l23-23v5.9zm0-20-23 23v-5.9l23-23v5.9zm0-20-23 23v-5.9l23-23v5.9zm-23 3v-5.9l4.7-4.7h5.9l-10.6 10.6zm0 114.2 23-23v5.9l-23 23v-5.9zm23 20.3h-3.3l3.3-3.3v3.3zm-83.3 0 17.3-17.3v5.8l-11.5 11.5h-5.8zm17.3-31.4-23 23v-5.9l23-23v5.9zm0-20.1-23 23v-5.9l23-23v5.9zm0-20-23 23v-5.9l23-23v5.9zm0-20-23 23v-5.9l23-23v5.9zm0-20-23 23v-5.9l23-23v5.9zm0-20-23 23v-5.9l23-23v5.9zm-23 3v-5.9l10.7-10.6h5.9l-16.6 16.5zm-10 72.2-1.9-9.2v-0.1l-16.5-79.4h18.4v88.7zm43 27.3v-0.8-115.2h23v145h-23v-29zm33 28.7 23-23v5.9l-17.5 17.4h-5.5v-0.3zm33-144.7h23v145h-23v-145zm-86.7-35.8v-2c0.1-0.7 0.2-1.4 0.4-2.2 0.3-1.5 1-3 1.9-4.4s2.1-2.8 3.6-3.9c0.7-0.5 1.5-1.1 2.3-1.5 0.4-0.2 0.8-0.4 1.3-0.6l0.6-0.3 0.3-0.1 0.2-0.1h0.1l0.3-0.1 1-0.3c0.2 0 0.3-0.1 0.6-0.1l0.8-0.1c1.1-0.2 2-0.2 2.9-0.2 1.8 0.1 3.6 0.4 5.2 1.1 1.6 0.6 3 1.5 4.2 2.5 0.6 0.5 1.1 1 1.6 1.5s0.9 1.1 1.2 1.6c0.3 0.6 0.6 1.1 0.9 1.6l0.6 1.5c0.1 0.5 0.2 0.9 0.3 1.4 0.1 0.4 0.1 0.8 0.1 1.2 0.1 0.7-0.1 1.3-0.1 1.6 0 0.4-0.1 0.6-0.1 0.6s-0.2-0.1-0.4-0.4c-0.3-0.2-0.7-0.6-1.2-1-0.2-0.2-0.5-0.4-0.8-0.6s-0.6-0.4-1-0.6c-0.7-0.4-1.4-0.8-2.2-1.2-0.8-0.3-1.7-0.6-2.6-0.8s-1.8-0.3-2.7-0.4-1.8 0-2.7 0.1c-0.2 0-0.4 0.1-0.7 0.1-0.2 0-0.3 0.1-0.5 0.1h-0.2-0.2l-0.2 0.1-0.8 0.2h-0.1l-0.2 0.1-0.3 0.1-1.8 0.9c-0.8 0.5-1.5 0.9-2.2 1.5s-1.4 1.2-1.9 1.9c-0.6 0.7-1.1 1.4-1.6 2.2-0.4 0.8-0.8 1.5-1.1 2.3-0.1 0.4-0.3 0.7-0.4 1.1l-0.3 0.9c-0.2 0.6-0.3 1.2-0.4 1.5-0.1 0.4-0.1 0.6-0.1 0.6s-0.2-0.1-0.4-0.4l-0.5-0.5c-0.2-0.2-0.4-0.4-0.6-0.7s-0.4-0.6-0.6-1-0.4-0.8-0.6-1.3-0.3-1-0.4-1.6c-0.4-0.6-0.4-1.2-0.5-1.9zm43.5-28.9c0-0.3-0.1-0.6 0-0.9 0-0.4 0.1-0.8 0.1-1.2 0.1-0.4 0.2-0.9 0.3-1.4s0.3-1 0.6-1.5c0.2-0.5 0.5-1 0.9-1.6 0.3-0.5 0.8-1.1 1.2-1.6 0.5-0.5 1-1.1 1.6-1.5 1.2-1 2.6-1.8 4.2-2.5 1.6-0.6 3.4-1 5.2-1.1s3.7 0.2 5.5 0.8l0.4 0.1h0.1l0.2 0.1 0.5 0.2c0.2 0.1 0.3 0.1 0.5 0.2l0.7 0.4c1 0.5 1.7 1 2.5 1.5 1.4 1.1 2.7 2.5 3.6 3.9 0.9 1.5 1.6 3 1.9 4.4 0.2 0.7 0.3 1.5 0.4 2.2 0 0.7 0.1 1.4 0 2s-0.1 1.2-0.3 1.8-0.3 1.1-0.5 1.6-0.4 0.9-0.6 1.3-0.4 0.7-0.6 1c-0.4 0.6-0.8 1-1 1.3l-0.4 0.4s-0.1-0.2-0.1-0.6c-0.1-0.4-0.2-0.9-0.4-1.5-0.1-0.3-0.2-0.6-0.3-1-0.1-0.3-0.3-0.7-0.4-1.1-0.3-0.7-0.7-1.5-1.1-2.2-0.5-0.7-1-1.5-1.6-2.2s-1.3-1.3-1.9-1.9c-0.7-0.6-1.5-1.1-2.2-1.5l-0.6-0.3c-0.2-0.1-0.3-0.1-0.5-0.2l-0.2-0.1s-0.1 0-0.2-0.1l-0.2-0.1-0.5-0.2-0.2-0.1h-0.1c-0.8-0.2-1.7-0.5-2.5-0.6-0.9-0.1-1.8-0.2-2.7-0.1s-1.8 0.2-2.7 0.4-1.7 0.5-2.6 0.8c-0.8 0.4-1.6 0.7-2.2 1.2-0.3 0.2-0.6 0.4-1 0.6-0.3 0.2-0.6 0.4-0.8 0.6-0.5 0.3-0.9 0.8-1.2 1s-0.4 0.4-0.4 0.4 0-0.2-0.1-0.6c-0.2 0-0.3-0.2-0.3-0.5zm29.9 26.6c0.2-0.5 0.5-1 0.9-1.6 0.3-0.5 0.8-1.1 1.2-1.6 0.5-0.5 1-1.1 1.6-1.5 1.2-1 2.6-1.8 4.2-2.5 1.6-0.6 3.4-1 5.2-1.1s3.7 0.2 5.5 0.8l0.4 0.1h0.1l0.2 0.1 0.5 0.2c0.2 0.1 0.3 0.1 0.5 0.2l0.7 0.4c1 0.5 1.7 1 2.5 1.5 1.4 1.1 2.7 2.5 3.6 3.9 0.9 1.5 1.6 3 1.9 4.4 0.2 0.7 0.3 1.5 0.4 2.2 0 0.7 0.1 1.4 0 2s-0.1 1.2-0.3 1.8-0.3 1.1-0.5 1.6-0.4 0.9-0.6 1.3-0.4 0.7-0.6 1c-0.4 0.6-0.8 1-1 1.3l-0.4 0.4s-0.1-0.2-0.1-0.6c-0.1-0.4-0.2-0.9-0.4-1.5-0.1-0.3-0.2-0.6-0.3-1-0.1-0.3-0.3-0.7-0.4-1.1-0.3-0.7-0.7-1.5-1.1-2.2-0.5-0.7-1-1.5-1.6-2.2s-1.3-1.3-1.9-1.9c-0.7-0.6-1.5-1.1-2.2-1.5l-0.6-0.3c-0.2-0.1-0.3-0.1-0.5-0.2l-0.2-0.1s-0.1 0-0.2-0.1l-0.2-0.1-0.5-0.2-0.2-0.1h-0.1c-0.8-0.2-1.7-0.5-2.5-0.6-0.9-0.1-1.8-0.2-2.7-0.1s-1.8 0.2-2.7 0.4-1.7 0.5-2.6 0.8c-0.8 0.4-1.6 0.7-2.2 1.2-0.3 0.2-0.6 0.4-1 0.6-0.3 0.2-0.6 0.4-0.8 0.6-0.5 0.3-0.9 0.8-1.2 1s-0.4 0.4-0.4 0.4 0-0.2-0.1-0.6c0-0.2 0-0.4-0.1-0.7 0-0.3-0.1-0.6 0-0.9 0-0.4 0.1-0.8 0.1-1.2 0.1-0.4 0.2-0.9 0.3-1.4 0-0.3 0.2-0.8 0.4-1.3z" xmlns="http://www.w3.org/2000/svg"/>
</g>
</svg>
