<?xml version="1.0" encoding="UTF-8"?>
<svg className="css-1j8o68f" viewBox="0 140 200 50" xmlns="http://www.w3.org/2000/svg">
<defs>
<linearGradient id="a">
<stop stop-color="#b88746" offset="0"/>
<stop stop-color="#fdf5a6" offset="1"/>
</linearGradient>
</defs>
<g transform="matrix(1.194 0 0 1.194 1.2873 135.59)" fill="url(#a)">
<path d="m24.52 18.52c-0.18668-1.1467-0.49332-2.2532-0.92-3.3199-0.37332-0.90668-0.88-1.8334-1.52-2.78s-1.48-1.7267-2.52-2.34h5.32 6.68c-1.0133 0.85332-1.9533 1.7666-2.82 2.74s-1.6067 1.8866-2.22 2.74c-0.72 0.98668-1.3867 1.9734-2 2.96zm-5 21.48h-7.76v-12l-12.84-17.88h7.76l12.84 17.88v12zm21.4-21c1.36 0 2.6467 0.27324 3.86 0.81992s2.2733 1.2934 3.18 2.24 1.62 2.06 2.14 3.34 0.78 2.6533 0.78 4.12c0 1.44-0.26 2.7933-0.78 4.06s-1.2333 2.3734-2.14 3.32-1.9667 1.6934-3.18 2.24-2.5 0.82-3.86 0.82h-0.64c0.48-0.42668 0.91332-0.98668 1.3-1.68s0.72-1.4933 1-2.4 0.5-1.9 0.66-2.98 0.24-2.2067 0.24-3.38-0.08-2.3066-0.24-3.4-0.38-2.0933-0.66-3-0.61332-1.7134-1-2.42-0.82-1.2734-1.3-1.7h0.64zm-5.72 20.96c-1.36 0-2.6467-0.27324-3.86-0.81992s-2.2733-1.2934-3.18-2.24-1.62-2.0534-2.14-3.32-0.78-2.62-0.78-4.06c0-1.4667 0.26-2.84 0.78-4.12s1.2333-2.3933 2.14-3.34 1.9667-1.6934 3.18-2.24 2.5-0.82 3.86-0.82h0.64c-0.48 0.42668-0.91332 0.99336-1.3 1.7s-0.72 1.5134-1 2.42-0.5 1.9067-0.66 3-0.24 2.2266-0.24 3.4 0.08 2.3 0.24 3.38 0.38 2.0733 0.66 2.98 0.61332 1.7067 1 2.4 0.82 1.2533 1.3 1.68h-0.64zm32.52-19.84c1.4667 0 2.8467 0.25984 4.14 0.77984s2.42 1.22 3.38 2.1 1.72 1.92 2.28 3.12 0.84 2.48 0.84 3.84-0.28 2.6333-0.84 3.82-1.32 2.2267-2.28 3.12-2.0867 1.6-3.38 2.12-2.6733 0.78-4.14 0.78h-0.64c0.50668-0.4 0.96668-0.92668 1.38-1.58s0.76664-1.4066 1.06-2.26 0.52664-1.7866 0.69996-2.8 0.26-2.08 0.26-3.2-0.08668-2.1867-0.26-3.2-0.40664-1.9466-0.69996-2.8-0.64664-1.6066-1.06-2.26-0.87332-1.18-1.38-1.58h0.64zm-14.04-6.2c1.2267-0.53332 2.3732-1.0867 3.4399-1.66s1.9867-1.1 2.76-1.58c0.90668-0.53332 1.7334-1.0666 2.48-1.6v30.92h-7v-21.16c0-1.0133-0.08668-1.84-0.26-2.48s-0.36664-1.1467-0.57996-1.52c-0.26668-0.42668-0.54668-0.73336-0.84-0.92004zm41.36 6.2c1.4667 0 2.8467 0.25984 4.14 0.77984s2.42 1.22 3.38 2.1 1.72 1.92 2.28 3.12 0.84 2.48 0.84 3.84-0.28 2.6333-0.84 3.82-1.32 2.2267-2.28 3.12-2.0867 1.6-3.38 2.12-2.6733 0.78-4.14 0.78h-0.64c0.50668-0.4 0.96668-0.92668 1.38-1.58s0.76664-1.4066 1.06-2.26 0.52664-1.7866 0.69996-2.8 0.26-2.08 0.26-3.2-0.08668-2.1867-0.26-3.2-0.40664-1.9466-0.69996-2.8-0.64664-1.6066-1.06-2.26-0.87332-1.18-1.38-1.58h0.64zm-14.04-6.2c1.2267-0.53332 2.3732-1.0867 3.4399-1.66s1.9867-1.1 2.76-1.58c0.90668-0.53332 1.7334-1.0666 2.48-1.6v30.92h-7v-21.16c0-1.0133-0.08668-1.84-0.26-2.48s-0.36664-1.1467-0.57996-1.52c-0.26668-0.42668-0.54668-0.73336-0.84-0.92004zm36.2-2.24c0 0.53332-0.1 1.0266-0.3 1.48s-0.47332 0.85332-0.82 1.2-0.75336 0.62-1.22 0.82-0.95336 0.3-1.46 0.3c-0.53332 0-1.0333-0.1-1.5-0.3s-0.86668-0.47332-1.2-0.82-0.6-0.74668-0.8-1.2-0.3-0.94664-0.3-1.48c0-0.50668 0.1-0.99336 0.3-1.46s0.46668-0.87336 0.8-1.22 0.73332-0.62 1.2-0.82 0.96668-0.3 1.5-0.3c0.50668 0 0.99336 0.1 1.46 0.3s0.87336 0.47332 1.22 0.82 0.62 0.75336 0.82 1.22 0.3 0.95336 0.3 1.46zm-9.24 11.24c0.29332 0.18668 0.57344 0.4934 0.84012 0.92008 0.21332 0.37332 0.40664 0.88 0.57996 1.52s0.26 1.4667 0.26 2.48v12.16h7v-21.92c-0.74668 0.53332-1.5734 1.0666-2.48 1.6-0.77332 0.48-1.6933 1.0067-2.76 1.58s-2.2134 1.1266-3.44 1.66zm31.2 14.64c0.93332 0 1.7733-0.09332 2.52-0.28-1.0933 1.0133-2.3666 1.82-3.82 2.42s-3.02 0.9-4.7 0.9c-1.6533 0-3.2066-0.28668-4.66-0.86s-2.72-1.36-3.8-2.36-1.9333-2.1733-2.56-3.52-0.94-2.78-0.94-4.3c0-1.4667 0.26668-2.84 0.8-4.12s1.26-2.4067 2.18-3.38 2.0067-1.76 3.26-2.36 2.5866-0.94 4-1.02c-0.98668 1.12-1.7067 2.3733-2.16 3.76s-0.68 2.9467-0.68 4.68c0 1.5467 0.27332 2.96 0.82 4.24s1.3 2.38 2.26 3.3 2.08 1.6333 3.36 2.14 2.6533 0.76 4.12 0.76zm-2.04-7.52c0.08-0.42668 0.14672-0.85332 0.20004-1.28s0.08-0.86668 0.08-1.32c0-1.7867-0.22668-3.4067-0.68-4.86s-1.1733-2.7533-2.16-3.9c1.4133 0.08 2.7466 0.43332 4 1.06s2.34 1.4467 3.26 2.46 1.6467 2.18 2.18 3.5 0.8 2.74 0.8 4.26v0.08h-7.68zm21.84-3.92c1.2267 0.50668 2.32 1.1533 3.28 1.94s1.76 1.68 2.4 2.68 1.1133 2.0867 1.42 3.26 0.42 2.3733 0.34 3.6l-12.04-4.84v-0.04c-1.2-0.48-2.28-1.12-3.24-1.92s-1.7667-1.7-2.42-2.7-1.1333-2.08-1.44-3.24-0.40668-2.3667-0.3-3.62zm6.84 0.96c-0.8-1.44-1.7733-2.6667-2.92-3.68s-2.2667-1.8533-3.36-2.52c-1.28-0.77332-2.5867-1.4266-3.92-1.96h10.2v8.16zm-18.88 4.32c0.77332 1.44 1.7267 2.6933 2.86 3.76s2.2333 1.96 3.3 2.68c1.2533 0.85332 2.5333 1.56 3.84 2.12h-10v-8.56z"></path>
</g>
</svg>
